HIERARCHY
ROOT hip
{
  OFFSET 0 0 0
  CHANNELS 6 Xposition Yposition Zposition Zrotation Yrotation Xrotation
  JOINT abdomen
  {
    OFFSET 0 20.6881 -0.73152
    CHANNELS 3 Zrotation Xrotation Yrotation
    JOINT chest
    {
      OFFSET 0 11.7043 -0.48768
      CHANNELS 3 Zrotation Xrotation Yrotation
      JOINT neck
      {
        OFFSET 0 22.1894 -2.19456
        CHANNELS 3 Zrotation Xrotation Yrotation
        JOINT head
        {
          OFFSET -0.24384 7.07133 1.2192
          CHANNELS 3 Zrotation Xrotation Yrotation
          JOINT leftEye
          {
            OFFSET 4.14528 8.04674 8.04672
            CHANNELS 3 Zrotation Xrotation Yrotation
            End Site
            {
              OFFSET 1 0 0
            }
          }
          JOINT rightEye
          {
            OFFSET -3.6576 8.04674 8.04672
            CHANNELS 3 Zrotation Xrotation Yrotation
            End Site
            {
              OFFSET 1 0 0
            }
          }
        }
      }
      JOINT rCollar
      {
        OFFSET -2.68224 19.2634 -4.8768
        CHANNELS 3 Zrotation Xrotation Yrotation
        JOINT rShldr
        {
          OFFSET -8.77824 -1.95073 1.46304
          CHANNELS 3 Zrotation Xrotation Yrotation
          JOINT rForeArm
          {
            OFFSET -28.1742 -1.7115 0.48768
            CHANNELS 3 Zrotation Xrotation Yrotation
            JOINT rHand
            {
              OFFSET -22.5879 0.773209 7.07136
              CHANNELS 3 Zrotation Xrotation Yrotation
              JOINT rThumb1
              {
                OFFSET -1.2192 -0.487915 3.41376
                CHANNELS 3 Zrotation Xrotation Yrotation
                JOINT rThumb2
                {
                  OFFSET -3.37035 -0.52449 3.41376
                  CHANNELS 3 Zrotation Xrotation Yrotation
                  End Site
                  {
                    OFFSET -1.78271 -1.18214 1.43049
                  }
                }
              }
              JOINT rIndex1
              {
                OFFSET -7.75947 0.938293 5.60832
                CHANNELS 3 Zrotation Xrotation Yrotation
                JOINT rIndex2
                {
                  OFFSET -2.54057 -0.884171 1.56538
                  CHANNELS 3 Zrotation Xrotation Yrotation
                  End Site
                  {
                    OFFSET -1.62519 -0.234802 1.16502
                  }
                }
              }
              JOINT rMid1
              {
                OFFSET -8.24714 1.18213 3.41376
                CHANNELS 3 Zrotation Xrotation Yrotation
                JOINT rMid2
                {
                  OFFSET -3.10165 -0.590103 1.0647
                  CHANNELS 3 Zrotation Xrotation Yrotation
                  End Site
                  {
                    OFFSET -2.48547 -0.328903 0.83742
                  }
                }
              }
              JOINT rRing1
              {
                OFFSET -8.82822 0.546677 1.51678
                CHANNELS 3 Zrotation Xrotation Yrotation
                JOINT rRing2
                {
                  OFFSET -2.60934 -0.819778 -0.0198488
                  CHANNELS 3 Zrotation Xrotation Yrotation
                  End Site
                  {
                    OFFSET -2.33842 -0.294052 0.168128
                  }
                }
              }
              JOINT rPinky1
              {
                OFFSET -8.27202 -0.0477905 -0.4584
                CHANNELS 3 Zrotation Xrotation Yrotation
                JOINT rPinky2
                {
                  OFFSET -1.82734 -0.647385 -0.700984
                  CHANNELS 3 Zrotation Xrotation Yrotation
                  End Site
                  {
                    OFFSET -1.69225 -0.51767 -0.607171
                  }
                }
              }
            }
          }
        }
      }
      JOINT lCollar
      {
        OFFSET 2.68224 19.2634 -4.8768
        CHANNELS 3 Zrotation Xrotation Yrotation
        JOINT lShldr
        {
          OFFSET 8.77824 -1.95073 1.46304
          CHANNELS 3 Zrotation Xrotation Yrotation
          JOINT lForeArm
          {
            OFFSET 28.1742 -1.7115 0.48768
            CHANNELS 3 Zrotation Xrotation Yrotation
            JOINT lHand
            {
              OFFSET 22.5879 0.773209 7.07136
              CHANNELS 3 Zrotation Xrotation Yrotation
              JOINT lThumb1
              {
                OFFSET 1.2192 -0.487915 3.41376
                CHANNELS 3 Zrotation Xrotation Yrotation
                JOINT lThumb2
                {
                  OFFSET 3.37035 -0.52449 3.41376
                  CHANNELS 3 Zrotation Xrotation Yrotation
                  End Site
                  {
                    OFFSET 1.78271 -1.18214 1.43049
                  }
                }
              }
              JOINT lIndex1
              {
                OFFSET 7.75947 0.938293 5.60832
                CHANNELS 3 Zrotation Xrotation Yrotation
                JOINT lIndex2
                {
                  OFFSET 2.54057 -0.884171 1.56538
                  CHANNELS 3 Zrotation Xrotation Yrotation
                  End Site
                  {
                    OFFSET 1.62519 -0.234802 1.16502
                  }
                }
              }
              JOINT lMid1
              {
                OFFSET 8.24714 1.18213 3.41376
                CHANNELS 3 Zrotation Xrotation Yrotation
                JOINT lMid2
                {
                  OFFSET 3.10165 -0.590103 1.0647
                  CHANNELS 3 Zrotation Xrotation Yrotation
                  End Site
                  {
                    OFFSET 2.48547 -0.328903 0.83742
                  }
                }
              }
              JOINT lRing1
              {
                OFFSET 8.82822 0.546677 1.51678
                CHANNELS 3 Zrotation Xrotation Yrotation
                JOINT lRing2
                {
                  OFFSET 2.60934 -0.819778 -0.0198488
                  CHANNELS 3 Zrotation Xrotation Yrotation
                  End Site
                  {
                    OFFSET 2.33842 -0.294052 0.168128
                  }
                }
              }
              JOINT lPinky1
              {
                OFFSET 8.27202 -0.0477905 -0.4584
                CHANNELS 3 Zrotation Xrotation Yrotation
                JOINT lPinky2
                {
                  OFFSET 1.82734 -0.647385 -0.700984
                  CHANNELS 3 Zrotation Xrotation Yrotation
                  End Site
                  {
                    OFFSET 1.69225 -0.51767 -0.607171
                  }
                }
              }
            }
          }
        }
      }
    }
  }
  JOINT rButtock
  {
    OFFSET -8.77824 4.35084 1.2192
    CHANNELS 3 Zrotation Xrotation Yrotation
    JOINT rThigh
    {
      OFFSET 0 -1.70687 -2.19456
      CHANNELS 3 Zrotation Xrotation Yrotation
      JOINT rShin
      {
        OFFSET 0 -36.8199 0.73152
        CHANNELS 3 Zrotation Xrotation Yrotation
        JOINT rFoot
        {
          OFFSET 0.73152 -45.1104 -5.12064
          CHANNELS 3 Zrotation Xrotation Yrotation
          End Site
          {
            OFFSET -1.1221 -3.69964 12.103
          }
        }
      }
    }
  }
  JOINT lButtock
  {
    OFFSET 8.77824 4.35084 1.2192
    CHANNELS 3 Zrotation Xrotation Yrotation
    JOINT lThigh
    {
      OFFSET 0 -1.70687 -2.19456
      CHANNELS 3 Zrotation Xrotation Yrotation
      JOINT lShin
      {
        OFFSET 0 -36.8199 0.73152
        CHANNELS 3 Zrotation Xrotation Yrotation
        JOINT lFoot
        {
          OFFSET -0.73152 -45.1104 -5.12064
          CHANNELS 3 Zrotation Xrotation Yrotation
          End Site
          {
            OFFSET 1.1221 -3.69964 12.103
          }
        }
      }
    }
  }
}
MOTION
Frames:	4
Frame Time:	0.00833333
-3.22553 84.1439 30.0587 0.833 -4.3076 13.8083 6.4111 27.498 -6.98609 2.58306 -13.1249 -1.22245 -4.55037 6.86422 -5.38754 9.25069 -25.6196 -8.01244 -0.0 0.0 0.0 -0.0 0.0 0.0 -2.45591e-14 2.00279e-14 7.15237e-14 31.5438 0.947249 38.9047 -19.5157 -53.72 115.382 -0.0725241 7.70655 1.08957 5.45851e-10 2.73324e-10 -9.01183e-11 9.42924e-10 4.6658e-10 -1.60609e-10 5.4585e-10 2.73316e-10 -9.0134e-11 7.73091 5.47488 0.417314 5.45851e-10 2.73323e-10 -9.0121e-11 2.90554 0.965183 0.102902 5.45854e-10 2.73322e-10 -9.0121e-11 10.2786 0.731801 0.0259123 5.45846e-10 2.73325e-10 -9.0115e-11 2.22167 -0.733487 -0.20892 -2.47423e-14 2.00257e-14 7.1434e-14 -23.9722 23.8963 -62.5067 20.9366 -52.5832 -111.892 0.0262967 4.57434 -0.644322 3.70667e-10 5.42146e-10 4.99576e-10 6.40667e-10 9.38856e-10 8.63075e-10 3.7067e-10 5.42145e-10 4.99581e-10 -7.73091 5.47488 -0.417314 3.7067e-10 5.42145e-10 4.99576e-10 -2.90554 0.965183 -0.102902 3.70664e-10 5.42146e-10 4.9958e-10 -10.2786 0.731801 -0.0259123 3.70675e-10 5.42147e-10 4.99576e-10 -2.22167 -0.733487 0.20892 -2.03217e-16 0.0 -3.88251e-19 -8.47968 -13.7593 8.16096 0.00718035 1.56741 0.0767031 -4.25487 -11.441 -16.8465 2.03217e-16 0.0 3.88251e-19 8.88879 -26.6658 9.10738 0.106767 25.0088 -0.495629 2.37574 -11.2718 9.22641
-3.22322 84.1758 29.9856 0.8553 -3.992 13.7005 6.96926 27.7355 -7.24973 2.66538 -13.1273 -1.24453 -4.759 6.42882 -5.50885 9.14551 -24.4243 -8.29519 -0.0 0.0 0.0 -0.0 0.0 0.0 -4.12505e-14 -7.76503e-19 5.56597e-14 30.6843 -1.44451 39.7663 -20.6043 -52.8678 112.727 -0.100124 8.98832 1.2738 6.63842e-10 3.18968e-10 -1.72513e-10 1.14752e-09 5.44982e-10 -3.04217e-10 6.63839e-10 3.18961e-10 -1.72532e-10 7.73091 5.47488 0.417314 6.63841e-10 3.18968e-10 -1.72516e-10 2.90554 0.965183 0.102902 6.63843e-10 3.18968e-10 -1.72516e-10 10.2786 0.731801 0.0259123 6.63837e-10 3.18971e-10 -1.7251e-10 2.22167 -0.733487 -0.20892 -4.14466e-14 -7.76503e-19 5.561e-14 -24.1133 21.9436 -63.765 21.7773 -51.8356 -109.703 0.0287581 4.83507 -0.681158 3.00872e-10 4.28321e-10 4.35952e-10 5.19942e-10 7.42033e-10 7.53574e-10 3.00874e-10 4.2832e-10 4.35959e-10 -7.73091 5.47488 -0.417314 3.00875e-10 4.2832e-10 4.35955e-10 -2.90554 0.965183 -0.102902 3.00867e-10 4.2832e-10 4.35959e-10 -10.2786 0.731801 -0.0259123 3.00879e-10 4.28321e-10 4.35955e-10 -2.22167 -0.733487 0.20892 -2.03217e-16 0.0 -3.88251e-19 -8.54413 -13.2129 7.86002 0.00690247 0.75701 0.0594492 -4.20228 -11.1317 -17.082 2.03217e-16 0.0 3.88251e-19 8.83564 -26.5543 8.95378 0.106409 24.7599 -0.486088 2.32642 -11.0722 9.12688
-3.21155 84.1888 29.8943 0.9646 -3.6584 13.6232 7.45934 27.9502 -7.4924 2.7131 -13.1363 -1.26823 -5.01663 6.18082 -5.60855 9.2071 -23.5132 -8.47945 -0.0 0.0 0.0 -0.0 0.0 0.0 -5.2582e-14 -2.53221e-14 3.61512e-14 29.748 -3.73595 40.378 -21.5405 -52.0311 110.328 -0.129064 10.1056 1.4356 4.10238e-10 4.30664e-10 -4.38821e-11 7.10574e-10 7.43357e-10 -7.8813e-11 4.10235e-10 4.3066e-10 -4.39006e-11 7.73091 5.47488 0.417314 4.10237e-10 4.30662e-10 -4.38872e-11 2.90554 0.965183 0.102902 4.1024e-10 4.30665e-10 -4.38867e-11 10.2786 0.731801 0.0259123 4.10234e-10 4.30666e-10 -4.38798e-11 2.22167 -0.733487 -0.20892 -5.28057e-14 -2.532e-14 3.60876e-14 -24.1713 20.0701 -64.9681 22.5479 -51.0616 -107.598 0.0340177 5.30364 -0.747482 1.98771e-10 1.30638e-10 1.15769e-10 3.41792e-10 2.27722e-10 2.00081e-10 1.98771e-10 1.30637e-10 1.15777e-10 -7.73091 5.47488 -0.417314 1.98773e-10 1.30637e-10 1.15774e-10 -2.90554 0.965183 -0.102902 1.98765e-10 1.30637e-10 1.15776e-10 -10.2786 0.731801 -0.0259123 1.98776e-10 1.30638e-10 1.15774e-10 -2.22167 -0.733487 0.20892 -2.03217e-16 0.0 -3.88251e-19 -8.64446 -12.9222 7.55147 0.00655222 0.349055 0.0511997 -4.17344 -10.9693 -17.2001 2.03217e-16 0.0 3.88251e-19 8.73914 -26.5411 8.85876 0.10626 24.6117 -0.479397 2.25884 -10.8912 8.95585
-3.20045 84.1914 29.7915 1.1168 -3.3661 13.5799 7.92775 28.1547 -7.73975 2.74149 -13.1494 -1.29594 -5.30494 6.04537 -5.69523 9.36664 -22.8066 -8.60162 -0.0 0.0 0.0 -0.0 0.0 0.0 -6.0602e-14 -5.58614e-14 1.18681e-14 28.7131 -5.97801 40.8183 -22.3785 -51.1776 108.067 -0.156114 11.0855 1.57847 -7.59725e-11 5.92904e-10 2.13588e-10 -1.27825e-10 1.03302e-09 3.72046e-10 -7.59757e-11 5.92904e-10 2.13572e-10 7.73091 5.47488 0.417314 -7.59739e-11 5.92898e-10 2.1358e-10 2.90554 0.965183 0.102902 -7.59685e-11 5.92905e-10 2.13581e-10 10.2786 0.731801 0.0259123 -7.5975e-11 5.92904e-10 2.13588e-10 2.22167 -0.733487 -0.20892 -6.08625e-14 -5.58575e-14 1.17562e-14 -24.2035 18.2498 -66.1324 23.2687 -50.2295 -105.518 0.0425075 5.91743 -0.834595 7.71168e-11 -3.06106e-10 -3.85441e-10 1.28828e-10 -5.26831e-10 -6.66655e-10 7.71149e-11 -3.06107e-10 -3.8543e-10 -7.73091 5.47488 -0.417314 7.71184e-11 -3.06108e-10 -3.85435e-10 -2.90554 0.965183 -0.102902 7.71102e-11 -3.06108e-10 -3.85433e-10 -10.2786 0.731801 -0.0259123 7.71215e-11 -3.06108e-10 -3.85433e-10 -2.22167 -0.733487 0.20892 -2.03217e-16 0.0 -3.88251e-19 -8.7708 -12.7913 7.22184 0.00640445 0.198169 0.0486704 -4.16068 -10.9004 -17.2446 2.03217e-16 0.0 3.88251e-19 8.6097 -26.5956 8.78721 0.106207 24.5284 -0.474534 2.18055 -10.7194 8.74135
